<?xml version="1.0" standalone="no"?><!DOCTYPE svg PUBLIC "-//W3C//DTD SVG 1.1//EN" "http://www.w3.org/Graphics/SVG/1.1/DTD/svg11.dtd"><svg t="1683098840223" class="icon" viewBox="0 0 1237 1024" version="1.1" xmlns="http://www.w3.org/2000/svg" p-id="1958" xmlns:xlink="http://www.w3.org/1999/xlink" width="241.6015625" height="200"><path d="M398.764021 938.395767a316.60563 316.60563 0 0 0 55.263492-4.334391c48.761905 57.430688 108.359788 89.938624 164.706879 89.938624s115.944974-32.507937 164.706878-89.938624a316.60563 316.60563 0 0 0 55.263492 4.334391c171.208466 0 398.764021-33.591534 398.764021-327.246561C1237.468783 365.172487 1070.594709 0 838.704762 0a354.336508 354.336508 0 0 0-219.97037 78.019048A354.336508 354.336508 0 0 0 398.764021 0C167.957672 0 0 365.172487 0 611.149206c1.083598 293.655026 228.639153 327.246561 398.764021 327.246561z" fill="#2D2413" p-id="1959"></path><path d="M1206.044444 611.149206c0 241.642328-163.62328 294.738624-366.256084 294.738625s-366.256085-195.047619-366.256085-436.689947S637.155556 32.507937 839.78836 32.507937s366.256085 338.08254 366.256084 578.641269z" fill="#DCB8AD" p-id="1960"></path><path d="M33.591534 611.149206c0 241.642328 163.62328 294.738624 366.256085 294.738625s366.256085-195.047619 366.256085-436.689947S602.480423 32.507937 399.847619 32.507937 33.591534 370.590476 33.591534 611.149206z" fill="#DCB8AD" p-id="1961"></path><path d="M296.90582 579.724868c0-178.793651 18.421164-322.912169 322.912169-322.91217S942.730159 402.014815 942.730159 579.724868C942.730159 758.518519 672.914286 902.637037 619.817989 902.637037S296.90582 757.434921 296.90582 579.724868z" fill="#CE776A" p-id="1962"></path><path d="M837.621164 721.67619c0 120.279365-109.443386 269.815873-217.803175 269.815873S402.014815 841.955556 402.014815 721.67619s171.208466-165.790476 217.803174-165.790476 217.803175 45.511111 217.803175 165.790476z" fill="#895045" p-id="1963"></path><path d="M702.171429 629.57037h7.585185a59.597884 59.597884 0 0 1 17.337566 3.250794 146.935873 146.935873 0 0 1 24.922751 9.752381 101.706497 101.706497 0 0 1 13.003175 9.752381 41.241735 41.241735 0 0 1 9.752381 14.086772 84.932402 84.932402 0 0 1 5.417989 15.170371c0 5.417989 1.083598 9.752381 1.083598 14.086772a58.947725 58.947725 0 0 1-4.334391 21.671958c-2.167196 5.417989-4.334392 9.752381-5.41799 13.003175a45.511111 45.511111 0 0 1-2.167196 5.417989 6.826667 6.826667 0 0 1-8.668783 3.250794 7.314286 7.314286 0 0 1-4.334391-6.501588v-19.504762a43.484783 43.484783 0 0 0-3.250794-16.253968 36.062138 36.062138 0 0 0-3.250794-6.501587c-1.083598-2.167196-3.250794-3.250794-4.334391-4.334392a32.702984 32.702984 0 0 0-22.755556-2.167195 33.504847 33.504847 0 0 1-8.668783 2.167195c-1.083598 0-1.083598 1.083598-2.167195 1.083598h-2.167196a30.88254 30.88254 0 0 1-16.253968-59.597883 11.681185 11.681185 0 0 0 8.668783 2.167195zM528.795767 689.168254c-1.083598-1.083598-1.083598-1.083598-2.167196-1.083598a20.414984 20.414984 0 0 0-8.668783-2.167196 32.71382 32.71382 0 0 0-22.755555 2.167196c-1.083598 1.083598-3.250794 2.167196-4.334392 4.334392s-3.250794 4.334392-3.250793 6.501587a43.473947 43.473947 0 0 0-3.250794 16.253968 51.405884 51.405884 0 0 0 0 13.003175v6.501587a6.989206 6.989206 0 0 1-6.501587 6.501587 6.739979 6.739979 0 0 1-6.501588-4.334391 45.511111 45.511111 0 0 1-2.167195-5.41799c-1.083598-3.250794-3.250794-7.585185-5.41799-13.003174a58.936889 58.936889 0 0 1-4.334391-21.671958 32.280381 32.280381 0 0 1 1.083598-14.086772 51.579259 51.579259 0 0 1 5.417989-15.170371 41.241735 41.241735 0 0 1 9.752381-14.086772 50.929101 50.929101 0 0 1 13.003175-9.752381 65.904423 65.904423 0 0 1 24.922751-9.752381 66.489566 66.489566 0 0 1 17.337566-3.250794h7.585185a30.925884 30.925884 0 1 1 3.250794 61.76508 30.004825 30.004825 0 0 1-9.752381-1.083598z" fill="#351F1A" p-id="1964"></path><path d="M690.251852 530.962963L834.37037 476.783069l11.919577 47.678307-151.703704 21.671957-4.334391-15.17037zM545.049735 546.133333l-151.703703-21.671957 11.919576-47.678307 143.034921 54.179894-3.250794 15.17037z" fill="#231F20" p-id="1965"></path><path d="M687.001058 403.098413l71.517461-59.597884a2.037164 2.037164 0 0 1 3.250793 0c1.083598 1.083598 1.083598 2.167196 0 2.167196l-47.678307 80.186243a18.21528 18.21528 0 0 1-31.424338-18.421164 8.462899 8.462899 0 0 0 4.334391-4.334391zM525.544974 426.937566L477.866667 346.751323c-1.083598-1.083598 0-2.167196 1.083598-3.250794h2.167195l71.517461 59.597884a17.684317 17.684317 0 1 1-22.755556 27.089947c-2.167196 0-3.250794-2.167196-4.334391-3.250794z" fill="#351F1A" p-id="1966"></path><path d="M469.197884 833.286772a15.668825 15.668825 0 0 1-7.585186-2.167195 14.086772 14.086772 0 0 1-4.334391-19.504762l31.424339-47.678307h262.230687l31.424339 47.678307a14.086772 14.086772 0 1 1-23.839153 15.17037l-22.755556-34.675132H503.873016l-22.755556 34.675132a14.975323 14.975323 0 0 1-11.919576 6.501587z" fill="#010101" p-id="1967"></path><path d="M805.113228 561.303704a214.04309 214.04309 0 0 1 41.176719-4.334392 100.178624 100.178624 0 0 1 31.424339 4.334392c2.167196 1.083598 4.334392 1.083598 6.501587 3.250793a23.63327 23.63327 0 0 1 5.417989 3.250794 13.003175 13.003175 0 0 1 4.334392 4.334392 16.860783 16.860783 0 1 1-23.839153 23.839153l-3.250794-3.250794v-1.083598a1.083598 1.083598 0 0 0-1.083598-1.083597c0-1.083598-1.083598-1.083598-2.167196-2.167196a58.070011 58.070011 0 0 0-21.671957-9.752381 253.345185 253.345185 0 0 0-37.925926-7.585185 4.952042 4.952042 0 0 1-4.334392-5.41799 18.995471 18.995471 0 0 1 5.41799-4.334391zM802.946032 588.393651a238.012275 238.012275 0 0 1 35.75873 11.919577l13.003175 6.501587a93.720381 93.720381 0 0 1 10.835978 7.585185 27.187471 27.187471 0 0 1 7.585186 8.668783l3.250793 3.250794a17.695153 17.695153 0 0 1-27.089947 22.755555c-1.083598-1.083598-2.167196-3.250794-3.250794-4.334391l-1.083597-2.167196a1.083598 1.083598 0 0 0-1.083598-1.083598c0-1.083598 0-1.083598-1.083598-2.167196a3.98764 3.98764 0 0 0-1.083598-3.250793c-2.167196-2.167196-3.250794-5.417989-5.41799-7.585186a32.98472 32.98472 0 0 0-8.668783-8.668783 187.722497 187.722497 0 0 0-27.089947-21.671957 4.085164 4.085164 0 0 1-1.083598-6.501588c3.250794-2.167196 4.334392-3.250794 6.501588-3.250793z" fill="#B83125" p-id="1968"></path><path d="M433.439153 571.056085a253.345185 253.345185 0 0 0-37.925925 7.585185 104.545524 104.545524 0 0 0-21.671958 9.752381c-1.083598 1.083598-2.167196 1.083598-2.167196 2.167196a1.083598 1.083598 0 0 1-1.083598 1.083597v1.083598l-3.250793 3.250794a16.860783 16.860783 0 1 1-23.839154-23.839153l4.334392-4.334392a23.730794 23.730794 0 0 1 5.417989-3.250794l6.501587-3.250793a100.178624 100.178624 0 0 1 31.424339-4.334392 214.04309 214.04309 0 0 1 41.17672 4.334392 4.139344 4.139344 0 0 1 3.250793 5.417989c2.167196 2.167196 0 4.334392-2.167196 4.334392zM439.940741 597.062434a187.722497 187.722497 0 0 0-27.089947 21.671958 65.405968 65.405968 0 0 1-8.668783 8.668783c-2.167196 3.250794-4.334392 5.417989-5.41799 7.585185a3.976804 3.976804 0 0 0-1.083598 3.250793c0 1.083598 0 1.083598-1.083598 2.167196a1.083598 1.083598 0 0 1-1.083597 1.083598l-1.083598 2.167196a17.510942 17.510942 0 1 1-32.507937-13.003175 14.975323 14.975323 0 0 1 3.250794-4.334391l3.250793-3.250794c2.167196-2.167196 4.334392-5.417989 7.585186-8.668783 3.250794-2.167196 7.585185-5.417989 10.835978-7.585185l13.003175-6.501587a238.023111 238.023111 0 0 1 35.75873-11.919577 4.139344 4.139344 0 0 1 5.41799 3.250793 4.767831 4.767831 0 0 1-1.083598 5.41799z" fill="#B83125" p-id="1969"></path></svg>