<?xml version="1.0" standalone="no"?><!DOCTYPE svg PUBLIC "-//W3C//DTD SVG 1.1//EN" "http://www.w3.org/Graphics/SVG/1.1/DTD/svg11.dtd"><svg t="1683550598310" class="icon" viewBox="0 0 1024 1024" version="1.1" xmlns="http://www.w3.org/2000/svg" p-id="2357" xmlns:xlink="http://www.w3.org/1999/xlink" width="500" height="500"><path d="M350.200738 401.251939c0 26.50827-21.419633 47.958877-47.958877 47.958877s-47.958877-21.450607-47.958877-47.958877c0-26.539244 21.419633-47.988851 47.958877-47.988851S350.200738 374.712695 350.200738 401.251939z" fill="#272636" p-id="2358"></path><path d="M512 0.877248c-282.507759 0-511.561352 229.084567-511.561352 511.561352s229.053593 511.561352 511.561352 511.561352c282.507759 0 511.561352-229.084567 511.561352-511.561352S794.507759 0.877248 512 0.877248zM512 960.054783c-247.163065 0-447.616183-200.453118-447.616183-447.616183s200.453118-447.616183 447.616183-447.616183c247.163065 0 447.616183 200.453118 447.616183 447.616183S759.163065 960.054783 512 960.054783z" fill="#272636" p-id="2359"></path><path d="M765.844336 398.254509c0 26.50827-21.419633 47.958877-47.958877 47.958877s-47.958877-21.450607-47.958877-47.958877c0-26.539244 21.419633-47.988851 47.958877-47.988851S765.844336 371.715266 765.844336 398.254509z" fill="#272636" p-id="2360"></path><path d="M760.786673 625.341789c0 0-83.928034 142.877487-248.786673 142.877487-153.868063 0-249.785816-140.8792-249.785816-140.8792-12.988862-26.976868-2.872537-44.711661 7.993147-47.958877 19.982865-5.99486 29.974298 16.985435 35.969157 25.977725 0 0 74.935744 110.904903 206.822656 114.901476 132.886055 4.027547 206.822656-116.899763 206.822656-116.899763 5.99486-8.99229 10.990575-26.976868 25.977725-24.978582C765.470657 581.004807 774.774679 602.361494 760.786673 625.341789z" fill="#272636" p-id="2361"></path></svg>